<svg xmlns="http://www.w3.org/2000/svg" version="1.1" xmlns:xlink="http://www.w3.org/1999/xlink" xmlns:svgjs="http://svgjs.dev/svgjs" width="1500" height="204" viewBox="0 0 1500 204"><g transform="matrix(1,0,0,1,-0.9090909090909918,-0.6362690230731687)"><svg viewBox="0 0 396 54" data-background-color="#ffffff" preserveAspectRatio="xMidYMid meet" height="204" width="1500" xmlns="http://www.w3.org/2000/svg" xmlns:xlink="http://www.w3.org/1999/xlink"><g id="tight-bounds" transform="matrix(1,0,0,1,0.2400000000000091,0.168424153166427)"><svg viewBox="0 0 395.52 53.663151693667146" height="53.663151693667146" width="395.52"><g><svg viewBox="0 0 395.52 53.663151693667146" height="53.663151693667146" width="395.52"><g><svg viewBox="0 0 395.52 53.663151693667146" height="53.663151693667146" width="395.52"><g id="textblocktransform"><svg viewBox="0 0 395.52 53.663151693667146" height="53.663151693667146" width="395.52" id="textblock"><g><svg viewBox="0 0 395.52 53.663151693667146" height="53.663151693667146" width="395.52"><g transform="matrix(1,0,0,1,0,0)"><svg width="395.52" viewBox="1.6 -36.7 271.58 36.85" height="53.663151693667146" data-palette-color="#010c80"><g class="wordmark-text-0" data-fill-palette-color="primary" id="text-0"><path d="M1.6-9.65L1.6-31.55Q1.6-33.85 3.03-35.13 4.45-36.4 6.7-36.4L6.7-36.4Q9.05-36.4 10.45-35.13 11.85-33.85 11.85-31.55L11.85-31.55 11.85-10.25Q11.85-9.3 12.35-8.93 12.85-8.55 14-9.2L14-9.2Q16.5-10.65 18.45-11.53 20.4-12.4 22.75-12.4L22.75-12.4Q26-12.4 27.65-10.7 29.3-9 29.3-6.25L29.3-6.25Q29.3-3.3 27.53-1.7 25.75-0.1 21.85-0.1L21.85-0.1 11.55-0.1Q8.25-0.1 6.05-0.88 3.85-1.65 2.73-3.7 1.6-5.75 1.6-9.65L1.6-9.65ZM30.9-13L30.9-13Q30.9-16.95 32.47-19.95 34.05-22.95 36.97-24.65 39.9-26.35 43.95-26.35L43.95-26.35Q47.1-26.35 49.62-25.2 52.15-24.05 53.6-22.13 55.05-20.2 55.05-17.9L55.05-17.9Q55.05-15.5 53.65-14.5 52.25-13.5 49.5-13.5L49.5-13.5 39-13.5Q39-12.2 40.02-11.35 41.05-10.5 43.5-10.5L43.5-10.5Q44.75-10.5 45.82-10.75 46.9-11 48.02-11.23 49.15-11.45 50.55-11.45L50.55-11.45Q52.55-11.45 53.85-10.03 55.15-8.6 55.15-6.1L55.15-6.1Q55.15-3.15 52.12-1.5 49.1 0.15 44.2 0.15L44.2 0.15Q40.75 0.15 37.72-1.2 34.7-2.55 32.8-5.48 30.9-8.4 30.9-13ZM39.15-15.15L47.1-15.15Q47.85-15.15 47.6-15.85L47.6-15.85Q47.4-16.55 46.4-17.3 45.4-18.05 43.5-18.05L43.5-18.05Q41.3-18.05 40.22-17.1 39.15-16.15 39.15-15.15L39.15-15.15ZM64.8 0L64.8 0Q61.09 0 59.02-2 56.95-4 56.95-7.6L56.95-7.6Q56.95-11.2 59.34-12.83 61.75-14.45 65.5-14.45L65.5-14.45Q67.7-14.45 69.5-14.15 71.3-13.85 72.75-13.3L72.75-13.3 72.9-13.3 72.9-14.05Q72.9-15.2 72.05-15.88 71.2-16.55 69.9-16.5L69.9-16.5Q68.65-16.5 67.77-16.35 66.9-16.2 65.59-15.85L65.59-15.85Q63.2-15.25 61.45-15.95 59.7-16.65 59.05-18.7L59.05-18.7Q58.45-20.85 59.32-22.3 60.2-23.75 62-24.55L62-24.55Q63.55-25.3 65.47-25.8 67.4-26.3 69.65-26.3L69.65-26.3Q76.2-26.3 79.27-23.13 82.34-19.95 82.34-12.5L82.34-12.5 82.34-4.75Q82.34-2.7 81.09-1.35 79.84 0 77.65 0L77.65 0Q75.25 0 74.07-1.35 72.9-2.7 72.9-4.65L72.9-4.65 72.9-5.8 71.9-5.8Q71.9-4.5 71.42-3.15 70.95-1.8 69.47-0.9 68 0 64.8 0ZM65.3-10.95L65.3-10.95Q65.3-10.1 65.92-9.75 66.55-9.4 68.65-9.4L68.65-9.4Q70.55-9.4 71.3-9.75 72.05-10.1 72.05-10.95L72.05-10.95Q72.05-11.75 71.3-12.08 70.55-12.4 68.65-12.4L68.65-12.4Q66.55-12.4 65.92-12.08 65.3-11.75 65.3-10.95ZM89.89 0L89.89 0Q87.54 0 86.24-1.35 84.94-2.7 84.94-4.75L84.94-4.75 84.94-21.15Q84.94-23.3 86.24-24.73 87.54-26.15 89.89-26.15L89.89-26.15Q92.24-26.15 93.49-24.73 94.74-23.3 94.74-21.25L94.74-21.25 94.74-20.2 95.69-20.2Q95.89-22.85 97.69-24.55 99.49-26.25 101.94-26.25L101.94-26.25Q104.39-26.25 105.82-24.75 107.24-23.25 107.24-20.75L107.24-20.75Q107.24-18.4 105.89-16.85 104.54-15.3 102.44-15.3L102.44-15.3Q100.69-15.3 99.52-16.13 98.34-16.95 97.79-18.05L97.79-18.05Q96.19-18.25 95.47-17.73 94.74-17.2 94.74-15.65L94.74-15.65 94.74-4.75Q94.74-2.7 93.49-1.35 92.24 0 89.89 0ZM113.89 0L113.89 0Q111.69 0 110.36-1.33 109.04-2.65 109.04-4.6L109.04-4.6 109.04-21.15Q109.04-23.25 110.29-24.7 111.54-26.15 113.89-26.15L113.89-26.15Q116.19-26.15 117.39-24.7 118.59-23.25 118.59-21.05L118.59-21.05 118.59-18.55 119.49-18.55Q119.49-21.4 120.52-23.05 121.54-24.7 123.14-25.43 124.74-26.15 126.34-26.15L126.34-26.15Q130.19-26.15 131.99-23.38 133.79-20.6 133.79-15.5L133.79-15.5 133.79-4.6Q133.79-2.65 132.49-1.33 131.19 0 128.99 0L128.99 0Q126.74 0 125.41-1.33 124.09-2.65 124.09-4.6L124.09-4.6 124.09-13.45Q124.09-15.25 123.41-16.25 122.74-17.25 121.44-17.25L121.44-17.25Q119.94-17.25 119.27-16.15 118.59-15.05 118.59-13.35L118.59-13.35 118.59-4.6Q118.59-2.65 117.34-1.33 116.09 0 113.89 0ZM141.94-0.15L141.94-0.15Q139.64-0.15 138.14-1.55 136.64-2.95 136.64-5.1L136.64-5.1 136.64-31.55Q136.64-33.75 138.09-35.23 139.54-36.7 141.89-36.7L141.89-36.7Q144.39-36.7 145.79-35.23 147.19-33.75 147.19-31.65L147.19-31.65 147.19-22.4 156.49-22.4 156.49-31.55Q156.49-33.75 157.94-35.23 159.39-36.7 161.84-36.7L161.84-36.7Q164.29-36.7 165.69-35.23 167.09-33.75 167.09-31.65L167.09-31.65 167.09-5.1Q167.09-2.95 165.61-1.55 164.14-0.15 161.94-0.15L161.94-0.15Q159.54-0.15 158.01-1.55 156.49-2.95 156.49-5.1L156.49-5.1 156.49-15.05 147.19-15.05 147.19-5.1Q147.19-2.95 145.71-1.55 144.24-0.15 141.94-0.15ZM174.73-25.3L174.73-25.3Q172.23-25.3 170.66-26.75 169.08-28.2 169.08-30.75L169.08-30.75Q169.08-33.25 170.51-34.77 171.94-36.3 174.73-36.3L174.73-36.3 196.28-36.3Q199.08-36.3 200.51-34.77 201.94-33.25 201.94-30.75L201.94-30.75Q201.94-28.2 200.36-26.75 198.78-25.3 196.28-25.3L196.28-25.3Q194.58-25.3 193.56-25.68 192.53-26.05 191.88-26.58 191.23-27.1 190.63-27.48 190.03-27.85 189.13-27.85L189.13-27.85 188.69-26.95Q188.88-26.5 189.38-25.68 189.88-24.85 190.33-23.33 190.78-21.8 190.78-19.2L190.78-19.2 190.78-4.75Q190.78-2.7 189.26-1.35 187.73 0 185.53 0L185.53 0Q183.28 0 181.76-1.35 180.23-2.7 180.23-4.75L180.23-4.75 180.23-19.2Q180.23-21.8 180.69-23.33 181.13-24.85 181.66-25.68 182.19-26.5 182.38-26.95L182.38-26.95 181.88-27.85Q180.98-27.85 180.38-27.48 179.78-27.1 179.13-26.58 178.48-26.05 177.48-25.68 176.48-25.3 174.73-25.3ZM209.08 0L209.08 0Q206.48 0 205.23-1.55 203.98-3.1 203.98-5.7L203.98-5.7 203.98-29Q203.98-32.8 206.06-34.6 208.13-36.4 211.03-36.4L211.03-36.4Q213.78-36.4 215.71-34.6 217.63-32.8 218.53-28.9L218.53-28.9 222.43-11.95 223.73-11.95 227.63-28.9Q228.53-32.8 230.51-34.6 232.48-36.4 235.23-36.4L235.23-36.4Q238.13-36.4 240.21-34.6 242.28-32.8 242.28-29L242.28-29 242.28-5.7Q242.28-3.1 241.01-1.55 239.73 0 237.13 0L237.13 0Q234.63 0 233.28-1.55 231.93-3.1 231.93-5.7L231.93-5.7 231.93-19.15Q231.93-19.65 231.81-20.08 231.68-20.5 231.13-20.5L231.13-20.5Q230.68-20.5 230.48-20.08 230.28-19.65 230.18-19.15L230.18-19.15 228.28-6.55Q227.93-4.5 227.46-3.03 226.98-1.55 225.98-0.78 224.98 0 223.08 0L223.08 0Q221.23 0 220.21-0.78 219.18-1.55 218.71-3.03 218.23-4.5 217.93-6.55L217.93-6.55 215.98-19.15Q215.93-19.65 215.73-20.08 215.53-20.5 215.03-20.5L215.03-20.5Q214.53-20.5 214.38-20.08 214.23-19.65 214.23-19.15L214.23-19.15 214.23-5.7Q214.23-3.1 212.91-1.55 211.58 0 209.08 0ZM245.48-9.65L245.48-31.55Q245.48-33.85 246.91-35.13 248.33-36.4 250.58-36.4L250.58-36.4Q252.93-36.4 254.33-35.13 255.73-33.85 255.73-31.55L255.73-31.55 255.73-10.25Q255.73-9.3 256.23-8.93 256.73-8.55 257.88-9.2L257.88-9.2Q260.38-10.65 262.33-11.53 264.28-12.4 266.63-12.4L266.63-12.4Q269.88-12.4 271.53-10.7 273.18-9 273.18-6.25L273.18-6.25Q273.18-3.3 271.4-1.7 269.63-0.1 265.73-0.1L265.73-0.1 255.43-0.1Q252.13-0.1 249.93-0.88 247.73-1.65 246.6-3.7 245.48-5.75 245.48-9.65L245.48-9.65Z" fill="#010c80" data-fill-palette-color="primary"></path></g></svg></g></svg></g></svg></g></svg></g></svg></g><defs></defs></svg><rect width="395.52" height="53.663151693667146" fill="none" stroke="none" visibility="hidden"></rect></g></svg></g></svg>